<svg viewBox="0 0 64 64" fill="none" xmlns="http://www.w3.org/2000/svg">
  <!-- Main circular background -->
  <circle cx="32" cy="32" r="28" fill="#0B5FFF"/>
  
  <!-- Stylized "A" letter -->
  <path d="M32 12 L24 44 L28 44 L30 36 L34 36 L36 44 L40 44 L32 12 Z M30 30 L32 22 L34 30 L30 30 Z" fill="#FFFFFF" opacity="0.95"/>
  
  <!-- Coins representing daily finance -->
  <circle cx="32" cy="14" r="4" fill="#FFB703" opacity="0.9"/>
  <circle cx="32" cy="50" r="4" fill="#FFB703" opacity="0.9"/>
  <circle cx="14" cy="32" r="3.5" fill="#FFB703" opacity="0.85"/>
  <circle cx="50" cy="32" r="3.5" fill="#FFB703" opacity="0.85"/>
  
  <!-- Sparkle effects -->
  <circle cx="12" cy="12" r="1.5" fill="#FFB703" opacity="0.6"/>
  <circle cx="52" cy="12" r="1.5" fill="#FFB703" opacity="0.6"/>
  <circle cx="12" cy="52" r="1.5" fill="#FFB703" opacity="0.6"/>
  <circle cx="52" cy="52" r="1.5" fill="#FFB703" opacity="0.6"/>
  
  <!-- Connecting lines -->
  <g stroke="#FFFFFF" stroke-width="1.5" opacity="0.3" fill="none">
    <line x1="32" y1="14" x2="28" y2="18"/>
    <line x1="32" y1="14" x2="36" y2="18"/>
    <line x1="28" y1="46" x2="24" y2="50"/>
    <line x1="36" y1="46" x2="40" y2="50"/>
  </g>
</svg>
